<?xml version="1.0" encoding="UTF-8" standalone="no"?>
<svg
   version="1.1"
   width="256"
   height="256"
   viewBox="0 0 256 256"
   xml:space="preserve"
   id="svg51"
   sodipodi:docname="Logo_Transparent_Name.svg"
   inkscape:version="1.3 (0e150ed6c4, 2023-07-21)"
   inkscape:export-filename="Logo_Transparent_Name\Logo_Transparent_Name.tiff"
   inkscape:export-xdpi="96"
   inkscape:export-ydpi="96"
   xmlns:inkscape="http://www.inkscape.org/namespaces/inkscape"
   xmlns:sodipodi="http://sodipodi.sourceforge.net/DTD/sodipodi-0.dtd"
   xmlns="http://www.w3.org/2000/svg"
   xmlns:svg="http://www.w3.org/2000/svg"><sodipodi:namedview
   id="namedview51"
   pagecolor="#ffffff"
   bordercolor="#000000"
   borderopacity="0.25"
   inkscape:showpageshadow="2"
   inkscape:pageopacity="0.0"
   inkscape:pagecheckerboard="0"
   inkscape:deskcolor="#d1d1d1"
   inkscape:zoom="1.0162631"
   inkscape:cx="108.73169"
   inkscape:cy="174.1675"
   inkscape:window-width="1920"
   inkscape:window-height="1010"
   inkscape:window-x="-6"
   inkscape:window-y="-6"
   inkscape:window-maximized="1"
   inkscape:current-layer="svg51" />&#10;<desc
   id="desc1">Created with Fabric.js 3.6.3</desc>&#10;<defs
   id="defs1" />&#10;&#10;&#10;<g
   id="g23"
   transform="matrix(0.73219214,0,0,0.73219214,5.6555001e-7,29.059061)"><g
     transform="matrix(3.07,0,0,3.07,175.515,132.01)"
     id="g11">&#10;<g
   style="opacity:0.1"
   id="g10">&#10;		<g
   clip-path="url(#CLIPPATH_25472)"
   id="g9">&#10;<clipPath
   id="CLIPPATH_25472">&#10;	<rect
   x="-50"
   y="-50"
   rx="0"
   ry="0"
   width="100"
   height="100"
   id="rect1" />&#10;</clipPath>&#10;<g
   id="g8">&#10;		<g
   transform="translate(27.066269,-14.340832)"
   id="g1">&#10;<polygon
   style="opacity:1;fill:#1c9aea;fill-rule:nonzero;stroke:none;stroke-width:1;stroke-linecap:butt;stroke-linejoin:miter;stroke-miterlimit:4;stroke-dasharray:none;stroke-dashoffset:0"
   points="-0.00160225,-13.320568 -11.52874,-6.6630783 -0.00048835,-0.00670625 -0.00048835,13.320568 11.52874,6.6641961 11.52874,-6.6630783 "
   id="polygon1" />&#10;</g>&#10;		<g
   transform="translate(-26.0662,-14.338597)"
   id="g2">&#10;<polygon
   style="opacity:1;fill:#1c9aea;fill-rule:nonzero;stroke:none;stroke-width:1;stroke-linecap:butt;stroke-linejoin:miter;stroke-miterlimit:4;stroke-dasharray:none;stroke-dashoffset:0"
   points="-11.528812,-6.6653128 -0.00055885,-0.007823 -0.00055885,13.320569 11.528812,6.6630793 11.528812,-6.6653128 -0.00181585,-13.320569 "
   id="polygon2" />&#10;</g>&#10;		<g
   transform="translate(0.4989529,-29.679432)"
   id="g3">&#10;<polygon
   style="opacity:1;fill:#1c9aea;fill-rule:nonzero;stroke:none;stroke-width:1;stroke-linecap:butt;stroke-linejoin:miter;stroke-miterlimit:4;stroke-dasharray:none;stroke-dashoffset:0"
   points="-11.52881,-6.6641951 0.0005588,-0.0067043 0.0005588,13.320568 11.52881,6.664196 11.52881,-6.6641951 -0.0005589,-13.320568 "
   id="polygon3" />&#10;</g>&#10;		<g
   transform="translate(0.4989529,1.0670471)"
   id="g4">&#10;<polygon
   style="opacity:1;fill:#1c9aea;fill-rule:nonzero;stroke:none;stroke-width:1;stroke-linecap:butt;stroke-linejoin:miter;stroke-miterlimit:4;stroke-dasharray:none;stroke-dashoffset:0"
   points="-11.52881,-6.664196 0.0005588,-0.0067062 0.0005588,13.320568 11.52881,6.6630783 11.52881,-6.664196 -0.0005589,-13.320568 "
   id="polygon4" />&#10;</g>&#10;		<g
   transform="translate(0.4989529,31.711842)"
   id="g5">&#10;<polygon
   style="opacity:1;fill:#1c9aea;fill-rule:nonzero;stroke:none;stroke-width:1;stroke-linecap:butt;stroke-linejoin:miter;stroke-miterlimit:4;stroke-dasharray:none;stroke-dashoffset:0"
   points="-11.52881,-6.6630821 0.0005588,-0.0067024 0.0005588,13.320568 11.52881,6.664196 11.52881,-6.6630821 -0.0005589,-13.320568 "
   id="polygon5" />&#10;</g>&#10;		<g
   transform="translate(27.066269,16.372122)"
   id="g6">&#10;<polygon
   style="opacity:1;fill:#1c9aea;fill-rule:nonzero;stroke:none;stroke-width:1;stroke-linecap:butt;stroke-linejoin:miter;stroke-miterlimit:4;stroke-dasharray:none;stroke-dashoffset:0"
   points="-11.52874,-6.6630764 -0.00048835,-0.0055828 -0.00048835,13.320566 11.52874,6.6630802 11.52874,-6.6630764 -0.00160225,-13.320566 "
   id="polygon6" />&#10;</g>&#10;		<g
   transform="translate(-26.0662,16.373241)"
   id="g7">&#10;<polygon
   style="opacity:1;fill:#1c9aea;fill-rule:nonzero;stroke:none;stroke-width:1;stroke-linecap:butt;stroke-linejoin:miter;stroke-miterlimit:4;stroke-dasharray:none;stroke-dashoffset:0"
   points="-11.528812,-6.664196 -0.00055885,-0.0067024 -0.00055885,13.320568 11.528812,6.6630745 11.528812,-6.664196 -0.00181585,-13.320568 "
   id="polygon7" />&#10;</g>&#10;</g>&#10;</g>&#10;</g>&#10;</g><g
     transform="matrix(3.07,0,0,3.07,176.015,56.45448)"
     id="g22">&#10;<g
   id="g21">&#10;		<g
   transform="translate(0,24.610917)"
   clip-path="url(#CLIPPATH_25473)"
   id="g20">&#10;<clipPath
   id="CLIPPATH_25473">&#10;	<rect
   transform="translate(0,-24.610917)"
   x="-50"
   y="-25.389084"
   rx="0"
   ry="0"
   width="100"
   height="50.778168"
   id="rect11" />&#10;</clipPath>&#10;<g
   id="g19">&#10;		<g
   transform="translate(27.066269,-14.340832)"
   id="g12">&#10;<polygon
   style="opacity:1;fill:#1c9aea;fill-rule:nonzero;stroke:none;stroke-width:1;stroke-linecap:butt;stroke-linejoin:miter;stroke-miterlimit:4;stroke-dasharray:none;stroke-dashoffset:0"
   points="-0.00160225,-13.320568 -11.52874,-6.6630783 -0.00048835,-0.00670625 -0.00048835,13.320568 11.52874,6.6641961 11.52874,-6.6630783 "
   id="polygon11" />&#10;</g>&#10;		<g
   transform="translate(-26.0662,-14.338597)"
   id="g13">&#10;<polygon
   style="opacity:1;fill:#1c9aea;fill-rule:nonzero;stroke:none;stroke-width:1;stroke-linecap:butt;stroke-linejoin:miter;stroke-miterlimit:4;stroke-dasharray:none;stroke-dashoffset:0"
   points="-11.528812,-6.6653128 -0.00055885,-0.007823 -0.00055885,13.320569 11.528812,6.6630793 11.528812,-6.6653128 -0.00181585,-13.320569 "
   id="polygon12" />&#10;</g>&#10;		<g
   transform="translate(0.4989529,-29.679432)"
   id="g14">&#10;<polygon
   style="opacity:1;fill:#1c9aea;fill-rule:nonzero;stroke:none;stroke-width:1;stroke-linecap:butt;stroke-linejoin:miter;stroke-miterlimit:4;stroke-dasharray:none;stroke-dashoffset:0"
   points="-11.52881,-6.6641951 0.0005588,-0.0067043 0.0005588,13.320568 11.52881,6.664196 11.52881,-6.6641951 -0.0005589,-13.320568 "
   id="polygon13" />&#10;</g>&#10;		<g
   transform="translate(0.4989529,1.0670471)"
   id="g15">&#10;<polygon
   style="opacity:1;fill:#1c9aea;fill-rule:nonzero;stroke:none;stroke-width:1;stroke-linecap:butt;stroke-linejoin:miter;stroke-miterlimit:4;stroke-dasharray:none;stroke-dashoffset:0"
   points="-11.52881,-6.664196 0.0005588,-0.0067062 0.0005588,13.320568 11.52881,6.6630783 11.52881,-6.664196 -0.0005589,-13.320568 "
   id="polygon14" />&#10;</g>&#10;		<g
   transform="translate(0.4989529,31.711842)"
   id="g16">&#10;<polygon
   style="opacity:1;fill:#1c9aea;fill-rule:nonzero;stroke:none;stroke-width:1;stroke-linecap:butt;stroke-linejoin:miter;stroke-miterlimit:4;stroke-dasharray:none;stroke-dashoffset:0"
   points="-11.52881,-6.6630821 0.0005588,-0.0067024 0.0005588,13.320568 11.52881,6.664196 11.52881,-6.6630821 -0.0005589,-13.320568 "
   id="polygon15" />&#10;</g>&#10;		<g
   transform="translate(27.066269,16.372122)"
   id="g17">&#10;<polygon
   style="opacity:1;fill:#1c9aea;fill-rule:nonzero;stroke:none;stroke-width:1;stroke-linecap:butt;stroke-linejoin:miter;stroke-miterlimit:4;stroke-dasharray:none;stroke-dashoffset:0"
   points="-11.52874,-6.6630764 -0.00048835,-0.0055828 -0.00048835,13.320566 11.52874,6.6630802 11.52874,-6.6630764 -0.00160225,-13.320566 "
   id="polygon16" />&#10;</g>&#10;		<g
   transform="translate(-26.0662,16.373241)"
   id="g18">&#10;<polygon
   style="opacity:1;fill:#1c9aea;fill-rule:nonzero;stroke:none;stroke-width:1;stroke-linecap:butt;stroke-linejoin:miter;stroke-miterlimit:4;stroke-dasharray:none;stroke-dashoffset:0"
   points="-11.528812,-6.664196 -0.00055885,-0.0067024 -0.00055885,13.320568 11.528812,6.6630745 11.528812,-6.664196 -0.00181585,-13.320568 "
   id="polygon17" />&#10;</g>&#10;</g>&#10;</g>&#10;</g>&#10;</g><g
     transform="matrix(0.5,0,0,0.5,175.515,164.97066)"
     id="g40"><path
       fill="#737373"
       opacity="1"
       d="m -316.98,-17.17 c -3.88,-3.46 -8.43,-5.04 -13.9,-5.04 -11.35,0 -20.15,9.05 -20.15,21.85 0,13.42 9.65,20.22 19.67,20.22 7.95,0 15.05,-2.67 15.05,-2.67 l -0.06,-17.85 h -8.74 l 1.09,5.22 v 8.56 c 0,0 -3.03,0.79 -6.25,0.79 -6.31,0 -12.56,-5.4 -12.56,-14.87 0,-8.14 5.16,-15.24 12.02,-15.24 3.58,0 7.22,1.4 10.62,4.86 z"
       id="path22" /><path
       fill="#737373"
       opacity="1"
       d="M -276.43,19.07 -288.99,2.98 c 4.55,-2.3 7.65,-7.34 7.65,-11.83 0,-8.62 -7.05,-12.63 -14.33,-12.63 h -12.56 l 0.85,6.25 v 34.3 h 8.55 l -0.66,-5.22 V 4.74 h 3.09 l 10.08,14.33 z m -23.06,-20.09 v -14.87 h 2.73 c 3.82,0 7.22,2.42 7.22,7.04 0,4.31 -3.4,7.83 -7.22,7.83 z"
       id="path23" /><path
       fill="#737373"
       opacity="1"
       d="m -244.44,3.47 c 0,6.07 -4.13,10.44 -9.41,10.44 -5.22,0 -9.1,-3.95 -9.1,-10.02 v -25.37 h -8.74 l 0.85,6.25 V 4.38 c 0,1.03 0.36,15.48 15.9,15.48 10.68,0 17.48,-6.86 17.48,-17.06 v -24.28 h -7.83 l 0.85,6.25 z m -12.2,-32.23 c 0,-2.07 -1.58,-3.77 -3.4,-3.77 -1.82,0 -3.4,1.7 -3.4,3.77 0,2.06 1.58,3.7 3.4,3.7 1.82,0 3.4,-1.64 3.4,-3.7 z m 11.17,0 c 0,-2.07 -1.58,-3.77 -3.4,-3.77 -1.88,0 -3.4,1.7 -3.4,3.77 0,2.06 1.52,3.7 3.4,3.7 1.82,0 3.4,-1.64 3.4,-3.7 z"
       id="path24" /><path
       fill="#737373"
       opacity="1"
       d="m -193.33,-21.48 h -7.83 l 0.85,6.25 V 5.71 l -2.31,-3.76 -19.91,-23.43 h -6.07 l 0.85,6.25 v 34.3 h 7.65 l -0.67,-5.22 V -7.76 l 2.37,3.82 20.46,23.01 h 5.04 l -0.43,-5.22 z"
       id="path25" /><path
       fill="#737373"
       opacity="1"
       d="m -129.66,-21.48 h -7.58 l -9.41,25.43 -1.28,4.8 -0.85,-4.8 -8.92,-25.43 h -8.68 l 4.43,11.96 -5.34,13.47 -1.27,4.8 -0.85,-4.8 -8.93,-25.43 h -9.71 l 3.95,7.53 12.08,32.59 5.52,1.22 8.01,-20.09 7.1,18.87 5.53,1.22 z"
       id="path26" /><path
       fill="#737373"
       opacity="1"
       d="m -131.29,19.07 h 7.28 l 3.58,-9.41 h 13.42 l 3.46,9.41 h 8.8 l -3.4,-7.53 -12.38,-33.81 -5.16,1.28 z m 17.17,-27.38 0.61,-2.43 0.55,2.37 4.19,11.78 h -9.72 z"
       id="path27" /><path
       fill="#737373"
       opacity="1"
       d="m -88.86,19.07 h 21.85 l 1.51,-6.13 h -15.47 v -34.42 h -8.74 l 0.85,6.25 z"
       id="path28" /><path
       fill="#737373"
       opacity="1"
       d="m -60.52,-21.48 0.85,6.25 v 34.3 h 13.72 c 12.02,0 19.73,-8.8 19.73,-20.52 0,-13.96 -8.86,-20.03 -17.91,-20.03 z m 8.74,5.89 h 6.56 c 6.19,0 10.68,6.25 10.68,14.51 0,8.13 -4.49,14.26 -10.68,14.26 h -6.56 z"
       id="path29" /><path
       fill="#737373"
       opacity="1"
       d=""
       id="path30" /><path
       fill="#737373"
       opacity="1"
       d="m 4.92,-21.48 h -8.74 l 0.85,6.25 v 34.3 H 5.58 L 4.92,13.85 Z"
       id="path31" /><path
       fill="#737373"
       opacity="1"
       d="m 50.81,-21.48 h -7.83 l 0.85,6.25 V 5.71 L 41.52,1.95 21.61,-21.48 h -6.07 l 0.85,6.25 v 34.3 h 7.65 L 23.37,13.85 V -7.76 l 2.37,3.82 20.45,23.01 h 5.04 l -0.42,-5.22 z"
       id="path32" /><path
       fill="#737373"
       opacity="1"
       d="m 95.85,-21.48 h -7.84 l 0.85,6.25 V 5.71 L 86.56,1.95 66.65,-21.48 h -6.07 l 0.85,6.25 v 34.3 h 7.65 L 68.41,13.85 V -7.76 l 2.37,3.82 20.45,23.01 h 5.04 l -0.42,-5.22 z"
       id="path33" /><path
       fill="#737373"
       opacity="1"
       d="m 122.43,-22.09 c -11.05,0 -19.42,9.23 -19.42,21.31 0,11.59 6.74,20.64 18.63,20.64 11.05,0 19.55,-9.23 19.55,-21.37 0,-12.02 -6.25,-20.58 -18.76,-20.58 z m -11.05,20.95 c 0,-8.68 4.31,-15.12 10.75,-15.12 6.43,0 10.68,6.44 10.68,15.12 0,8.68 -4.25,15.11 -10.68,15.11 -6.44,0 -10.75,-6.43 -10.75,-15.11 z"
       id="path34" /><path
       fill="#737373"
       opacity="1"
       d="m 180.76,-21.48 h -7.58 l -9.41,25.43 -1.28,4.8 -0.91,-4.8 -8.86,-25.43 h -9.71 l 3.94,7.53 12.08,32.59 5.53,1.22 z"
       id="path35" /><path
       fill="#737373"
       opacity="1"
       d="m 178.46,19.07 h 7.28 l 3.58,-9.41 h 13.42 l 3.46,9.41 h 8.8 l -3.4,-7.53 -12.38,-33.81 -5.16,1.28 z m 17.18,-27.38 0.6,-2.43 0.55,2.37 4.19,11.78 h -9.71 z"
       id="path36" /><path
       fill="#737373"
       opacity="1"
       d="m 212.45,-15.35 h 12.75 v 34.42 h 8.56 l -0.67,-5.22 v -29.2 h 13.11 v -6.13 h -33.75 z"
       id="path37" /><path
       fill="#737373"
       opacity="1"
       d="m 260.04,-21.48 h -8.74 l 0.85,6.25 v 34.3 h 8.56 l -0.67,-5.22 z"
       id="path38" /><path
       fill="#737373"
       opacity="1"
       d="m 287.48,-22.09 c -11.05,0 -19.43,9.23 -19.43,21.31 0,11.59 6.74,20.64 18.64,20.64 11.04,0 19.54,-9.23 19.54,-21.37 0,-12.02 -6.25,-20.58 -18.75,-20.58 z m -11.05,20.95 c 0,-8.68 4.31,-15.12 10.74,-15.12 6.44,0 10.68,6.44 10.68,15.12 0,8.68 -4.24,15.11 -10.68,15.11 -6.43,0 -10.74,-6.43 -10.74,-15.11 z"
       id="path39" /><path
       fill="#737373"
       opacity="1"
       d="m 347.81,-21.48 h -7.83 l 0.85,6.25 V 5.71 l -2.31,-3.76 -19.91,-23.43 h -6.07 l 0.85,6.25 v 34.3 h 7.65 l -0.67,-5.22 V -7.76 l 2.37,3.82 20.46,23.01 h 5.04 l -0.43,-5.22 z"
       id="path40" /></g><g
     transform="matrix(3.07,0,0,3.07,175.515,241.82867)"
     id="g51">&#10;<g
   id="g50">&#10;		<g
   transform="translate(0,-35.771553)"
   clip-path="url(#CLIPPATH_25474)"
   id="g49">&#10;<clipPath
   id="CLIPPATH_25474">&#10;	<rect
   transform="translate(0,35.771553)"
   x="-50"
   y="-14.228447"
   rx="0"
   ry="0"
   width="100"
   height="28.456894"
   id="rect40" />&#10;</clipPath>&#10;<g
   id="g48">&#10;		<g
   transform="translate(27.066269,-14.340832)"
   id="g41">&#10;<polygon
   style="opacity:1;fill:#1c9aea;fill-rule:nonzero;stroke:none;stroke-width:1;stroke-linecap:butt;stroke-linejoin:miter;stroke-miterlimit:4;stroke-dasharray:none;stroke-dashoffset:0"
   points="-0.00160225,-13.320568 -11.52874,-6.6630783 -0.00048835,-0.00670625 -0.00048835,13.320568 11.52874,6.6641961 11.52874,-6.6630783 "
   id="polygon40" />&#10;</g>&#10;		<g
   transform="translate(-26.0662,-14.338597)"
   id="g42">&#10;<polygon
   style="opacity:1;fill:#1c9aea;fill-rule:nonzero;stroke:none;stroke-width:1;stroke-linecap:butt;stroke-linejoin:miter;stroke-miterlimit:4;stroke-dasharray:none;stroke-dashoffset:0"
   points="-11.528812,-6.6653128 -0.00055885,-0.007823 -0.00055885,13.320569 11.528812,6.6630793 11.528812,-6.6653128 -0.00181585,-13.320569 "
   id="polygon41" />&#10;</g>&#10;		<g
   transform="translate(0.4989529,-29.679432)"
   id="g43">&#10;<polygon
   style="opacity:1;fill:#1c9aea;fill-rule:nonzero;stroke:none;stroke-width:1;stroke-linecap:butt;stroke-linejoin:miter;stroke-miterlimit:4;stroke-dasharray:none;stroke-dashoffset:0"
   points="-11.52881,-6.6641951 0.0005588,-0.0067043 0.0005588,13.320568 11.52881,6.664196 11.52881,-6.6641951 -0.0005589,-13.320568 "
   id="polygon42" />&#10;</g>&#10;		<g
   transform="translate(0.4989529,1.0670471)"
   id="g44">&#10;<polygon
   style="opacity:1;fill:#1c9aea;fill-rule:nonzero;stroke:none;stroke-width:1;stroke-linecap:butt;stroke-linejoin:miter;stroke-miterlimit:4;stroke-dasharray:none;stroke-dashoffset:0"
   points="-11.52881,-6.664196 0.0005588,-0.0067062 0.0005588,13.320568 11.52881,6.6630783 11.52881,-6.664196 -0.0005589,-13.320568 "
   id="polygon43" />&#10;</g>&#10;		<g
   transform="translate(0.4989529,31.711842)"
   id="g45">&#10;<polygon
   style="opacity:1;fill:#1c9aea;fill-rule:nonzero;stroke:none;stroke-width:1;stroke-linecap:butt;stroke-linejoin:miter;stroke-miterlimit:4;stroke-dasharray:none;stroke-dashoffset:0"
   points="-11.52881,-6.6630821 0.0005588,-0.0067024 0.0005588,13.320568 11.52881,6.664196 11.52881,-6.6630821 -0.0005589,-13.320568 "
   id="polygon44" />&#10;</g>&#10;		<g
   transform="translate(27.066269,16.372122)"
   id="g46">&#10;<polygon
   style="opacity:1;fill:#1c9aea;fill-rule:nonzero;stroke:none;stroke-width:1;stroke-linecap:butt;stroke-linejoin:miter;stroke-miterlimit:4;stroke-dasharray:none;stroke-dashoffset:0"
   points="-11.52874,-6.6630764 -0.00048835,-0.0055828 -0.00048835,13.320566 11.52874,6.6630802 11.52874,-6.6630764 -0.00160225,-13.320566 "
   id="polygon45" />&#10;</g>&#10;		<g
   transform="translate(-26.0662,16.373241)"
   id="g47">&#10;<polygon
   style="opacity:1;fill:#1c9aea;fill-rule:nonzero;stroke:none;stroke-width:1;stroke-linecap:butt;stroke-linejoin:miter;stroke-miterlimit:4;stroke-dasharray:none;stroke-dashoffset:0"
   points="-11.528812,-6.664196 -0.00055885,-0.0067024 -0.00055885,13.320568 11.528812,6.6630745 11.528812,-6.664196 -0.00181585,-13.320568 "
   id="polygon46" />&#10;</g>&#10;</g>&#10;</g>&#10;</g>&#10;</g></g>&#10;</svg>
